<mxfile host="app.diagrams.net" modified="2023-06-10T18:18:38.641Z" agent="Mozilla/5.0 (Windows NT 10.0; Win64; x64) AppleWebKit/537.36 (KHTML, like Gecko) Chrome/113.0.0.0 Safari/537.36" version="21.3.8" etag="5VtcBFCGVhGQauOGMQQf" type="github">
  <diagram name="Page-1" id="hgFSIWnnbgkxW8IczFG8">
    <mxGraphModel>
      <root>
        <mxCell id="0" />
        <mxCell id="1" parent="0" />
      </root>
    </mxGraphModel>
  </diagram>
</mxfile>
